<svg xmlns="http://www.w3.org/2000/svg" version="1.1" xmlns:xlink="http://www.w3.org/1999/xlink" xmlns:svgjs="http://svgjs.dev/svgjs" width="128" height="128" viewBox="0 0 128 128"><g transform="matrix(0.8046875,0,0,0.8046875,12.333870967741937,13.402384257134983)"><svg viewBox="0 0 155 153" data-background-color="#ffffff" preserveAspectRatio="xMidYMid meet" height="126" width="128" xmlns="http://www.w3.org/2000/svg" xmlns:xlink="http://www.w3.org/1999/xlink"><g id="tight-bounds" transform="matrix(1,0,0,1,0.25,-0.14742589703587328)"><svg viewBox="0 0 154.5 153.29485179407175" height="153.29485179407175" width="154.5"><g><svg viewBox="0 0 154.5 153.29485179407175" height="153.29485179407175" width="154.5"><g><svg viewBox="0 0 154.5 153.29485179407175" height="153.29485179407175" width="154.5"><g id="textblocktransform"><svg viewBox="0 0 154.5 153.29485179407175" height="153.29485179407175" width="154.5" id="textblock"><g><svg viewBox="0 0 154.5 153.29485179407175" height="153.29485179407175" width="154.5"><g transform="matrix(1,0,0,1,0,0)"><svg width="154.5" viewBox="0.8 -28.6 32.050000000000004 31.8" height="153.29485179407175" data-palette-color="#000000"><g class="wordmark-text-0" data-fill-palette-color="primary" id="text-0"><path d="M6 3.2L6 3.2Q4.75 3.2 4.13 2.65 3.5 2.1 3.5 1.15L3.5 1.15Q3.5 0.25 4.05-0.8 4.6-1.85 5.6-2.75L5.6-2.75Q5.9-3 6.1-3.05L6.1-3.05Q6.25-3.05 6.35-2.95L6.35-2.95Q6.4-2.9 6.4-2.75L6.4-2.75Q6.4-2.4 5.95-1.95L5.95-1.95Q4.55-0.5 4.55 0.5L4.55 0.5Q4.55 1.05 5.05 1.5 5.55 1.95 6.2 1.9L6.2 1.9Q8.7 1.8 11.35 0.8 14-0.2 16.3-1.98 18.6-3.75 20.1-6.05L20.1-6.05Q21.2-7.65 21.2-8.85L21.2-8.85Q21.2-10.4 19.2-10.4L19.2-10.4Q18.85-10.4 18.4-10.33 17.95-10.25 17.4-10.15L17.4-10.15 14.9-9.6Q11.85-8.95 9.5-8.47 7.15-8 5.3-8L5.3-8Q3.15-8 1.98-8.68 0.8-9.35 0.8-11L0.8-11Q0.8-11.75 1.1-12.8L1.1-12.8Q2.1-16.1 6.45-19.8L6.45-19.8Q9.4-22.3 13.05-24.28 16.7-26.25 20.43-27.43 24.15-28.6 27.4-28.6L27.4-28.6Q29.9-28.6 31.38-27.5 32.85-26.4 32.85-24.5L32.85-24.5Q32.85-22.75 31.6-20.75L31.6-20.75Q31.25-20.25 31-20.25L31-20.25Q30.9-20.25 30.8-20.43 30.7-20.6 30.7-20.8L30.7-20.8Q30.7-20.85 30.73-20.98 30.75-21.1 30.8-21.3L30.8-21.3Q31.2-22.5 31.2-23.6L31.2-23.6Q31.2-25.3 30.03-26.15 28.85-27 26.65-26.8L26.65-26.8Q22.8-26.4 17.85-24.35L17.85-24.35Q14.5-22.95 11.53-21.05 8.55-19.15 6.43-17.03 4.3-14.9 3.5-12.75L3.5-12.75Q3.3-12.35 3.3-11.8L3.3-11.8Q3.3-9.8 7.25-9.8L7.25-9.8Q9.15-9.8 11.43-10.2 13.7-10.6 16.7-11.2L16.7-11.2 18.45-11.55Q19.35-11.7 20.2-11.7L20.2-11.7Q21.8-11.7 22.75-11.05 23.7-10.4 23.7-9.25L23.7-9.25Q23.7-8.2 22.8-6.75L22.8-6.75Q21.95-5.4 20.8-4.17 19.65-2.95 18.25-1.8L18.25-1.8Q15.4 0.5 12.15 1.85 8.9 3.2 6 3.2Z" fill="#ffffff" data-fill-palette-color="primary"></path></g></svg></g></svg></g></svg></g></svg></g></svg></g><defs></defs></svg><rect width="154.5" height="153.29485179407175" fill="none" stroke="none" visibility="hidden"></rect></g></svg></g></svg>