<svg xmlns="http://www.w3.org/2000/svg" width="395.52" viewBox="0.8 -28.6 62.940000000000005 31.900000000000002" height="193.66213353798923" data-palette-color="#000000">
  <g class="wordmark-text-0" data-fill-palette-color="primary" id="text-0">
    <path d="M6 3.2L6 3.2Q4.75 3.2 4.13 2.65 3.5 2.1 3.5 1.15L3.5 1.15Q3.5 0.25 4.05-0.8 4.6-1.85 5.6-2.75L5.6-2.75Q5.9-3 6.1-3.05L6.1-3.05Q6.25-3.05 6.35-2.95L6.35-2.95Q6.4-2.9 6.4-2.75L6.4-2.75Q6.4-2.4 5.95-1.95L5.95-1.95Q4.55-0.5 4.55 0.5L4.55 0.5Q4.55 1.05 5.05 1.5 5.55 1.95 6.2 1.9L6.2 1.9Q8.7 1.8 11.35 0.8 14-0.2 16.3-1.98 18.6-3.75 20.1-6.05L20.1-6.05Q21.2-7.65 21.2-8.85L21.2-8.85Q21.2-10.4 19.2-10.4L19.2-10.4Q18.85-10.4 18.4-10.33 17.95-10.25 17.4-10.15L17.4-10.15 14.9-9.6Q11.85-8.95 9.5-8.47 7.15-8 5.3-8L5.3-8Q3.15-8 1.98-8.68 0.8-9.35 0.8-11L0.8-11Q0.8-11.75 1.1-12.8L1.1-12.8Q2.1-16.1 6.45-19.8L6.45-19.8Q9.4-22.3 13.05-24.28 16.7-26.25 20.43-27.43 24.15-28.6 27.4-28.6L27.4-28.6Q29.9-28.6 31.38-27.5 32.85-26.4 32.85-24.5L32.85-24.5Q32.85-22.75 31.6-20.75L31.6-20.75Q31.25-20.25 31-20.25L31-20.25Q30.9-20.25 30.8-20.43 30.7-20.6 30.7-20.8L30.7-20.8Q30.7-20.85 30.73-20.98 30.75-21.1 30.8-21.3L30.8-21.3Q31.2-22.5 31.2-23.6L31.2-23.6Q31.2-25.3 30.03-26.15 28.85-27 26.65-26.8L26.65-26.8Q22.8-26.4 17.85-24.35L17.85-24.35Q14.5-22.95 11.53-21.05 8.55-19.15 6.43-17.03 4.3-14.9 3.5-12.75L3.5-12.75Q3.3-12.35 3.3-11.8L3.3-11.8Q3.3-9.8 7.25-9.8L7.25-9.8Q9.15-9.8 11.43-10.2 13.7-10.6 16.7-11.2L16.7-11.2 18.45-11.55Q19.35-11.7 20.2-11.7L20.2-11.7Q21.8-11.7 22.75-11.05 23.7-10.4 23.7-9.25L23.7-9.25Q23.7-8.2 22.8-6.75L22.8-6.75Q21.95-5.4 20.8-4.17 19.65-2.95 18.25-1.8L18.25-1.8Q15.4 0.5 12.15 1.85 8.9 3.2 6 3.2ZM26.4 0.85L26.4 0.85Q24.45 0.85 24.45-0.9L24.45-0.9Q24.45-1 24.47-1.25 24.5-1.5 24.55-1.85L24.55-1.85Q25.05-3.9 26.57-5.83 28.1-7.75 30.1-9.2L30.1-9.2Q30.85-9.8 32.5-9.8L32.5-9.8Q33.45-9.8 34.17-9.53 34.9-9.25 35.2-8.7L35.2-8.7Q35.5-8.2 35.5-7.55L35.5-7.55Q35.5-7.45 35.47-7.25 35.45-7.05 35.4-6.8L35.4-6.8Q35.5-6.85 35.72-6.85 35.95-6.85 36.3-6.9L36.3-6.9Q36.65-6.95 36.97-7 37.3-7.05 37.65-7.05L37.65-7.05 37.85-7.05Q38.4-7.05 37.97-6.63 37.55-6.2 36.85-6.1L36.85-6.1 35.15-5.9Q34.65-4.5 33.42-3.1 32.2-1.7 30.72-0.68 29.25 0.35 27.95 0.65L27.95 0.65Q27.2 0.85 26.4 0.85ZM32.8-6.6L32.8-6.6Q33.1-6.6 33.52-6.63 33.95-6.65 34.5-6.7L34.5-6.7Q34.55-6.8 34.55-7.15L34.55-7.15Q34.55-8.05 33.8-8.4L33.8-8.4Q33.4-8.65 32.8-8.65L32.8-8.65Q32.05-8.65 31.27-8.18 30.5-7.7 29.65-6.95L29.65-6.95Q30.7-6.6 32.8-6.6ZM27.9-0.9L27.9-0.9Q28.4-0.9 29.32-1.38 30.25-1.85 31.25-2.65 32.25-3.45 33.05-4.35L33.05-4.35Q33.3-4.6 33.55-4.98 33.8-5.35 34.1-5.75L34.1-5.75 32.9-5.6Q30.1-5.2 27.9-5.15L27.9-5.15Q26.8-3.35 26.55-2.15L26.55-2.15Q26.5-1.5 26.9-1.2 27.3-0.9 27.9-0.9ZM37.8 3.3L37.8 3.3Q37.25 3.3 36.87 2.95 36.5 2.6 36.55 2.1L36.55 2.1Q36.4 1.4 36.77 0.08 37.15-1.25 37.85-2.9 38.55-4.55 39.37-6.3 40.2-8.05 40.95-9.55L40.95-9.55 37.6-8.65 37.5-8.65Q37.15-8.65 37.15-9L37.15-9Q37.15-9.5 37.57-10.18 38-10.85 38.5-11L38.5-11Q39-11.2 39.9-11.35 40.8-11.5 42.15-11.7L42.15-11.7Q50.65-25.95 52.9-26.15L52.9-26.15Q55.55-26.45 55.55-22.8L55.55-22.8Q55.55-22.35 55.47-21.73 55.4-21.1 55.3-20.25L55.3-20.25Q55.25-19.75 54.95-19.75L54.95-19.75Q54.75-19.75 54.62-20.05 54.5-20.35 54.59-20.8L54.59-20.8Q54.75-21.7 54.75-22.3L54.75-22.3Q54.75-24.25 53.59-24.25L53.59-24.25Q52.45-24.25 49.95-20.65L49.95-20.65Q48.7-18.8 47.27-16.63 45.85-14.45 44.3-11.95L44.3-11.95Q44.75-12 45.2-12.03 45.65-12.05 46.05-12.05L46.05-12.05Q46.5-12.05 47.07-12.08 47.65-12.1 48.3-12.15L48.3-12.15Q48.7-12.45 49.05-12.45L49.05-12.45Q49.7-12.45 49.7-11.75L49.7-11.75Q49.7-11 48.85-11L48.85-11Q48.6-11 48.15-11.15L48.15-11.15Q46.85-11.05 46.15-10.93 45.45-10.8 44.85-10.63 44.25-10.45 43.25-10.2L43.25-10.2Q42-8.15 40.9-6.13 39.8-4.1 39.07-2.4 38.35-0.7 38.35 0.4L38.35 0.4Q38.35 1.4 39.15 1.45L39.15 1.45Q39.85 1.15 40.15 1.15L40.15 1.15Q40.5 1.15 40.5 1.4L40.5 1.4Q40.5 1.85 39.45 2.65L39.45 2.65Q38.65 3.3 37.8 3.3ZM50.74-10.95L50.74-10.95Q50.09-10.95 50.09-11.25L50.09-11.25Q50.09-11.5 50.47-11.98 50.84-12.45 51.34-12.8L51.34-12.8Q52.44-13.5 53.07-14 53.69-14.5 54.59-15.7L54.59-15.7Q54.64-15.6 54.64-15.3L54.64-15.3Q54.64-14.65 54.12-13.73 53.59-12.8 52.94-12.05 52.29-11.3 51.79-11.1L51.79-11.1Q51.34-10.95 50.74-10.95ZM46.29 1.3L46.29 1.3Q45.89 1.3 45.54 1 45.19 0.7 45.19 0.2L45.19 0.2Q45.19-0.85 46.64-3.65L46.64-3.65 47.19-4.75Q47.29-4.85 47.47-5.25 47.64-5.65 47.99-6.3L47.99-6.3Q48.34-7 48.54-7.55 48.74-8.1 48.84-8.6L48.84-8.6Q48.84-8.65 49.04-8.8 49.24-8.95 49.44-9.05L49.44-9.05 49.74-9.1Q50.14-9.1 50.42-8.95 50.69-8.8 50.59-8.55L50.59-8.55Q50.24-7.8 49.99-7.25 49.74-6.7 49.59-6.3L49.59-6.3 49.54-6.3Q48.99-5.05 48.62-3.93 48.24-2.8 48.29-1.8L48.29-1.8 48.34-0.45Q48.29 0.05 47.99 0.4L47.99 0.4Q47.79 0.55 47.44 0.78 47.09 1 46.54 1.25L46.54 1.25Q46.49 1.3 46.29 1.3ZM58.94 1.35L58.94 1.35Q58.84 1.35 58.74 1.33 58.64 1.3 58.54 1.25L58.54 1.25Q57.84 0.9 57.64 0.25 57.44-0.4 57.54-1.4L57.54-1.4Q57.64-1.8 57.77-2.8 57.89-3.8 58.09-4.4L58.09-4.4 55.54-1.95 54.14-0.6Q52.69 0.85 51.74 0.85L51.74 0.85Q51.34 0.85 51.09 0.55L51.09 0.55Q50.64 0 50.64-0.8L50.64-0.8Q50.64-1.85 51.19-3.05 51.74-4.25 52.49-5.38 53.24-6.5 53.84-7.25L53.84-7.25Q55.34-9.1 56.77-10.15 58.19-11.2 59.74-11.2L59.74-11.2Q60.59-11.2 61.42-10.9 62.24-10.6 62.94-9.9L62.94-9.9 62.99-9.85Q62.99-9.7 62.74-9.55L62.74-9.55Q62.64-9.45 62.57-9.4 62.49-9.35 62.44-9.3L62.44-9.3Q61.84-8.7 61.09-7.3 60.34-5.9 59.79-4.38 59.24-2.85 59.24-1.75L59.24-1.75Q59.24-0.75 59.74-0.4L59.74-0.4Q59.99-0.25 60.29-0.25L60.29-0.25Q60.94-0.25 62.09-1.05L62.09-1.05Q62.14-1.1 62.32-1.23 62.49-1.35 62.84-1.6L62.84-1.6Q63.24-1.9 63.49-1.9L63.49-1.9Q63.74-1.9 63.74-1.7L63.74-1.7Q63.74-1.4 63.34-1L63.34-1Q63.04-0.75 62.67-0.45 62.29-0.15 61.79 0.15L61.79 0.15Q61.04 0.7 60.24 1.03 59.44 1.35 58.94 1.35ZM53.29-1.85L53.29-1.85Q54.34-1.85 57.19-4.95L57.19-4.95Q57.94-5.8 58.54-6.58 59.14-7.35 59.64-8.1L59.64-8.1Q60.54-9.55 60.24-10.1L60.24-10.1Q60.09-10.4 59.64-10.4L59.64-10.4Q59.09-10.4 58.14-9.83 57.19-9.25 56.22-8.35 55.24-7.45 54.44-6.55L54.44-6.55Q53.89-5.85 53.34-4.6 52.79-3.35 52.79-2.55L52.79-2.55Q52.79-1.85 53.29-1.85Z" fill="#000000" data-fill-palette-color="primary" />
  </g>
</svg>